<svg width="20" height="20" viewBox="0 0 20 20" fill="none" xmlns="http://www.w3.org/2000/svg">
<circle cx="10" cy="10" r="10" fill="white"/>
<path d="M14.875 5.3335H5.12501C4.50464 5.3335 4 5.81945 4 6.41684V12.9168C4 13.5142 4.50464 14.0002 5.12501 14.0002H14.875C15.4954 14.0002 16 13.5142 16 12.9168V6.41684C16 5.81945 15.4954 5.3335 14.875 5.3335V5.3335ZM14.875 6.05571C14.9259 6.05571 14.9744 6.06589 15.0187 6.08367L10 10.2723L4.98125 6.08367C5.02556 6.06592 5.07403 6.05571 5.12498 6.05571H14.875ZM14.875 13.2779H5.12501C4.9181 13.2779 4.75 13.1161 4.75 12.9168V6.8467L9.75427 11.0231C9.82496 11.082 9.91248 11.1113 10 11.1113C10.0875 11.1113 10.175 11.082 10.2457 11.0231L15.25 6.8467V12.9168C15.25 13.1161 15.0819 13.2779 14.875 13.2779V13.2779Z" fill="black"/>
</svg>
